<svg xmlns="http://www.w3.org/2000/svg" width="600" height="521.7391304347826"><g transform="scale(26.08695652173913, 26.08695652173913)"><path d="M0 0 h23 v20 h-23 z M8.690000000000001 5.75 L8.690000000000001 14.25 L15.690000000000001 10 z M2 8.9 v2.2 h2.2 v-2.2 z M18.8 8.9 v2.2 h2.2 v-2.2 z M2 13.9 v2.2 h2.2 v-2.2 z M2 3.9 v2.2 h2.2 v-2.2 z M18.8 13.9 v2.2 h2.2 v-2.2 z M18.8 3.9 v2.2 h2.2 v-2.2 z M2 18.9 v2.2 h2.2 v-2.2 z M2 -1.1 v2.2 h2.2 v-2.2 z M18.8 18.9 v2.2 h2.2 v-2.2 z M18.8 -1.1 v2.2 h2.2 v-2.2 z " fill="black"/></g></svg>